<svg preserveAspectRatio="none" overflow="visible" style="display: block;" width="16.6667" height="16.6667" viewBox="0 0 16.6667 16.6667" fill="none" xmlns="http://www.w3.org/2000/svg">
<g id="Container">
<path id="Icon" d="M7.58333 14.1667H9.04167V13.125C9.73611 13 10.3333 12.7292 10.8333 12.3125C11.3333 11.8958 11.5833 11.2778 11.5833 10.4583C11.5833 9.875 11.4167 9.34028 11.0833 8.85417C10.75 8.36806 10.0833 7.94444 9.08333 7.58333C8.25 7.30556 7.67361 7.0625 7.35417 6.85417C7.03472 6.64583 6.875 6.36111 6.875 6C6.875 5.63889 7.00347 5.35417 7.26042 5.14583C7.51736 4.9375 7.88889 4.83333 8.375 4.83333C8.81944 4.83333 9.16667 4.94097 9.41667 5.15625C9.66667 5.37153 9.84722 5.63889 9.95833 5.95833L11.2917 5.41667C11.1389 4.93056 10.8576 4.50694 10.4479 4.14583C10.0382 3.78472 9.58333 3.58333 9.08333 3.54167V2.5H7.625V3.54167C6.93056 3.69444 6.38889 4 6 4.45833C5.61111 4.91667 5.41667 5.43056 5.41667 6C5.41667 6.65278 5.60764 7.18056 5.98958 7.58333C6.37153 7.98611 6.97222 8.33333 7.79167 8.625C8.66667 8.94444 9.27431 9.22917 9.61458 9.47917C9.95486 9.72917 10.125 10.0556 10.125 10.4583C10.125 10.9167 9.96181 11.2535 9.63542 11.4688C9.30903 11.684 8.91667 11.7917 8.45833 11.7917C8 11.7917 7.59375 11.6493 7.23958 11.3646C6.88542 11.0799 6.625 10.6528 6.45833 10.0833L5.08333 10.625C5.27778 11.2917 5.57986 11.8299 5.98958 12.2396C6.39931 12.6493 6.93056 12.9306 7.58333 13.0833V14.1667V14.1667M8.33333 16.6667C7.18056 16.6667 6.09722 16.4479 5.08333 16.0104C4.06944 15.5729 3.1875 14.9792 2.4375 14.2292C1.6875 13.4792 1.09375 12.5972 0.65625 11.5833C0.21875 10.5694 0 9.48611 0 8.33333C0 7.18056 0.21875 6.09722 0.65625 5.08333C1.09375 4.06944 1.6875 3.1875 2.4375 2.4375C3.1875 1.6875 4.06944 1.09375 5.08333 0.65625C6.09722 0.21875 7.18056 0 8.33333 0C9.48611 0 10.5694 0.21875 11.5833 0.65625C12.5972 1.09375 13.4792 1.6875 14.2292 2.4375C14.9792 3.1875 15.5729 4.06944 16.0104 5.08333C16.4479 6.09722 16.6667 7.18056 16.6667 8.33333C16.6667 9.48611 16.4479 10.5694 16.0104 11.5833C15.5729 12.5972 14.9792 13.4792 14.2292 14.2292C13.4792 14.9792 12.5972 15.5729 11.5833 16.0104C10.5694 16.4479 9.48611 16.6667 8.33333 16.6667V16.6667M8.33333 15C10.1944 15 11.7708 14.3542 13.0625 13.0625C14.3542 11.7708 15 10.1944 15 8.33333C15 6.47222 14.3542 4.89583 13.0625 3.60417C11.7708 2.3125 10.1944 1.66667 8.33333 1.66667C6.47222 1.66667 4.89583 2.3125 3.60417 3.60417C2.3125 4.89583 1.66667 6.47222 1.66667 8.33333C1.66667 10.1944 2.3125 11.7708 3.60417 13.0625C4.89583 14.3542 6.47222 15 8.33333 15V15M8.33333 8.33333V8.33333V8.33333V8.33333V8.33333V8.33333V8.33333V8.33333V8.33333V8.33333" fill="black"/>
</g>
</svg>
